PathFileType	3	(X/Y/Z)	F:\ViconData\AntennenMessung\Messung1\Session1\ID15.trc
DataRate	CameraRate	NumFrames	NumMarkers	Units	OrigDataRate	OrigDataStartFrame	OrigNumFrames
120.0	120.0	6	70	mm	120.0	336	1342	
Frame#	Time	Ashort			Along			Atop			A4			Bshort			Blong			Btop			B4			Cshort			Clong			Ctop			C4			Dshort			Dlong			Dtop			D4			Eshort			Elong			Etop			E4			Fshort			Flong			Ftop			F4			Gshort			Glong			Gtop			G4			Hshort			Hlong			Htop			H4			I1			I2			I3			I4			I5			WandAshort			WandAlong			WandAtop			WandA4			WandA15			WandBshort			WandB4			WandB5			WandBtop			WandBlong			WandCshort			WandClong			WandCtop			WandC4			WandC5			Acenter			Aantenna			Bcenter			Bantenna			Ccenter			Cantenna			Dcenter			Dantenna			Ecenter			Eantenna			Fcenter			Fantenna			Gcenter			Gantenna			Hcenter			Hantenna			Icenter			Iantenna			
		X1	Y1	Z1	X2	Y2	Z2	X3	Y3	Z3	X4	Y4	Z4	X5	Y5	Z5	X6	Y6	Z6	X7	Y7	Z7	X8	Y8	Z8	X9	Y9	Z9	X10	Y10	Z10	X11	Y11	Z11	X12	Y12	Z12	X13	Y13	Z13	X14	Y14	Z14	X15	Y15	Z15	X16	Y16	Z16	X17	Y17	Z17	X18	Y18	Z18	X19	Y19	Z19	X20	Y20	Z20	X21	Y21	Z21	X22	Y22	Z22	X23	Y23	Z23	X24	Y24	Z24	X25	Y25	Z25	X26	Y26	Z26	X27	Y27	Z27	X28	Y28	Z28	X29	Y29	Z29	X30	Y30	Z30	X31	Y31	Z31	X32	Y32	Z32	X33	Y33	Z33	X34	Y34	Z34	X35	Y35	Z35	X36	Y36	Z36	X37	Y37	Z37	X38	Y38	Z38	X39	Y39	Z39	X40	Y40	Z40	X41	Y41	Z41	X42	Y42	Z42	X43	Y43	Z43	X44	Y44	Z44	X45	Y45	Z45	X46	Y46	Z46	X47	Y47	Z47	X48	Y48	Z48	X49	Y49	Z49	X50	Y50	Z50	X51	Y51	Z51	X52	Y52	Z52	X53	Y53	Z53	X54	Y54	Z54	X55	Y55	Z55	X56	Y56	Z56	X57	Y57	Z57	X58	Y58	Z58	X59	Y59	Z59	X60	Y60	Z60	X61	Y61	Z61	X62	Y62	Z62	X63	Y63	Z63	X64	Y64	Z64	X65	Y65	Z65	X66	Y66	Z66	X67	Y67	Z67	X68	Y68	Z68	X69	Y69	Z69	X70	Y70	Z70	
336	2.7916667	-1038.1903	214.57883	-1644.0803	-1109.3864	204.14749	-1599.3328	-1063.639	172.92677	-1625.829	-1054.1802	262.26361	-1634.868	-1352.752	235.08011	1003.698	-1281.3745	227.39169	1052.3507	-1322.7443	193.88303	1021.0153	-1284.4077	287.90985	1052.8322	814.12952	187.67529	1209.5131	892.21326	178.49315	1179.267	844.48865	145.46472	1198.3995	861.13336	292.72589	1167.1431	1115.7603	209.67363	-1401.5768	1056.2797	194.11275	-1460.1881	1095.1807	162.47408	-1423.7783	1069.7957	238.87151	-1425.7885	-1204.5996	1686.0312	-1563.067	-1129.1726	1688.434	-1606.4542	-1173.1228	1724.3698	-1581.9509	-1134.0439	1581.0332	-1603.8043	-1239.5875	1699.1296	1119.4757	-1309.1885	1698.6095	1071.8602	-1270.4056	1736.2971	1096.8849	-1245.675	1592.9316	1110.7104	988.94507	1664.2792	1162.2146	957.36298	1700.5387	1183.7588	922.07874	1662.3011	1214.9537	939.85486	1659.4474	1159.895	999.1228	1668.4374	-1579.3423	1058.9232	1670.172	-1518.5718	1024.9963	1708.0322	-1551.0536	1059.3112	1672.1639	-1585.3506	-201.76958	1171.5996	-147.20747	-197.03073	1170.8235	-231.24106	-199.12758	1208.4995	-184.95847	-166.76062	1171.1962	-182.61105	-247.61955	1172.5206	-186.64589																																														-1068.5629	210.12874	-1624.9907	-1073.6788	248.78192	-1624.1198	-1321.4224	231.70544	1025.053	-1320.068	270.46167	1029.1904	848.17761	183.67145	1196.3243	851.92029	222.43431	1194.2189	1088.8876	202.6434	-1428.0566	1082.8845	240.9619	-1432.1378	-1171.8938	1687.073	-1581.88	-1170.6095	1648.0942	-1581.8059	-1270.9177	1698.8954	1098.042	-1271.4514	1659.9177	1099.2479	952.81342	1705.7621	1186.8622	972.72852	1733.9233	1168.6598	1026.5475	1669.2327	-1551.4725	1028.1053	1630.2662	-1551.8933	-199.65842	1171.2538	-184.64436	-200.21417	1132.2592	-184.31549
337	2.8	-1038.2057	214.59254	-1644.0878	-1109.4095	204.1732	-1599.3503	-1063.5942	172.94473	-1625.8344	-1054.1763	262.29123	-1634.8785	-1352.6945	235.09012	1003.7725	-1281.4003	227.28786	1052.4963	-1322.7345	193.84761	1021.039	-1284.6245	287.88663	1052.9835	814.07477	187.62712	1209.4325	892.17767	178.44528	1179.3156	844.57178	145.55569	1198.2867	860.97797	292.259	1167.3142	1115.772	209.68176	-1401.5728	1056.3219	194.05193	-1460.0992	1095.2428	162.56158	-1423.7955	1069.7628	238.87819	-1425.8135	-1204.5873	1686.0354	-1563.0806	-1129.1486	1688.3286	-1605.9777	-1173.153	1724.4403	-1581.9552	-1134.0405	1581.0374	-1603.802	-1239.5922	1699.1422	1119.4808	-1309.34	1698.8445	1071.9502	-1270.4127	1736.3105	1096.8851	-1244.9006	1593.8566	1106.4738	988.91577	1664.2698	1162.2346	957.3916	1700.4911	1183.8307	921.98206	1662.3068	1214.9451	939.89435	1659.4348	1159.9363	999.12341	1668.4597	-1579.3673	1058.925	1670.175	-1518.5769	1025.0044	1708.0532	-1551.0565	1059.3029	1672.1439	-1585.3428	-201.78357	1171.609	-147.21904	-197.0233	1170.8334	-231.24544	-199.12589	1208.501	-184.96898	-166.70522	1171.0918	-182.61394	-247.61737	1172.5393	-186.66508																																														-1068.5349	210.15443	-1625.0319	-1073.6671	248.80627	-1624.1984	-1321.4081	231.6662	1025.1541	-1320.0491	270.41379	1029.3705	848.26001	183.60826	1196.2505	852.01709	222.3714	1194.1759	1088.8892	202.61407	-1428.0377	1082.812	240.92339	-1432.0955	-1171.8638	1687.0299	-1581.6881	-1170.5209	1648.0541	-1581.4099	-1271.045	1699.0078	1098.0468	-1271.7058	1660.0322	1099.2607	952.78455	1705.7844	1186.9868	972.74872	1733.9637	1168.8662	1026.5526	1669.2465	-1551.4844	1028.1072	1630.2799	-1551.9142	-199.6627	1171.2633	-184.65559	-200.22487	1132.2688	-184.32742
338	2.8083333	-1038.1963	214.54561	-1644.0513	-1109.3926	204.17709	-1599.3347	-1063.6022	172.95682	-1625.8313	-1054.1643	262.25558	-1634.8427	-1352.757	235.13553	1003.7325	-1281.3832	227.3468	1052.4214	-1322.8049	193.80565	1021.0384	-1284.4023	287.99451	1052.7173	814.00336	187.6368	1209.5192	892.2442	178.56065	1179.163	844.47919	145.53416	1198.2921	861.17834	292.33627	1167.8494	1115.7765	209.68144	-1401.5865	1056.3134	194.06111	-1460.1067	1095.2546	162.54758	-1423.811	1069.7566	238.90434	-1425.8245	-1204.5845	1686.0341	-1563.0723	-1129.1136	1688.3337	-1605.9823	-1173.1174	1724.3666	-1581.9521	-1134.0326	1581.0382	-1603.8009	-1239.5845	1699.1238	1119.4775	-1309.3533	1698.8635	1071.9575	-1270.3837	1736.27	1096.8705	-1244.8813	1593.8307	1106.559	988.97144	1664.3221	1162.2495	957.38507	1700.4346	1183.8223	922.05206	1662.2798	1214.8785	939.84784	1659.4448	1159.9043	999.12537	1668.4728	-1579.3802	1058.927	1670.1768	-1518.5812	1025.0059	1708.0493	-1551.0472	1059.303	1672.1522	-1585.3425	-201.76086	1171.5879	-147.21623	-197.03239	1170.8241	-231.24564	-199.12532	1208.4982	-184.96817	-166.70096	1171.0907	-182.60817	-247.64865	1172.5624	-186.66394																																														-1068.504	210.13181	-1625.0157	-1073.601	248.78799	-1624.1678	-1321.4369	231.71771	1025.098	-1320.0387	270.4711	1029.2477	848.12372	183.67873	1196.281	851.82806	222.44856	1194.2368	1088.8933	202.61952	-1428.0433	1082.8118	240.92935	-1432.0895	-1171.8328	1687.032	-1581.6935	-1170.4918	1648.056	-1581.4237	-1271.0468	1699.0063	1098.0481	-1271.7404	1660.0319	1099.2799	952.7262	1705.7609	1187.0042	972.64087	1733.9904	1168.9072	1026.5597	1669.2544	-1551.4883	1028.1205	1630.2881	-1551.9314	-199.65387	1171.2474	-184.65927	-200.20717	1132.2528	-184.33591
339	2.8166667	-1038.1897	214.55969	-1644.1783	-1109.3966	204.25194	-1599.3586	-1063.6006	172.97044	-1625.8503	-1054.1537	262.24713	-1634.8297	-1352.7764	235.07576	1003.7761	-1281.4006	227.38196	1052.3912	-1322.7383	193.86131	1021.0286	-1284.4476	287.93552	1052.8527	814.02057	187.55231	1209.3923	892.1911	178.49637	1179.2166	844.57214	145.45239	1198.3531	861.08691	292.37567	1167.7164	1115.7626	209.67575	-1401.5656	1056.313	194.09843	-1460.1115	1095.1665	162.39771	-1423.8124	1069.7456	238.85709	-1425.7521	-1204.5845	1686.0427	-1563.068	-1129.1311	1688.3146	-1605.9738	-1173.1305	1724.377	-1581.9526	-1134.0439	1581.0364	-1603.8062	-1239.5901	1699.1361	1119.4777	-1308.1737	1699.6926	1068.4215	-1270.4539	1736.3665	1096.9137	-1244.9497	1593.6661	1106.4846	988.94397	1664.2858	1162.2068	957.35651	1700.4843	1183.8271	922.11102	1662.29	1214.874	939.82275	1659.4613	1159.9313	999.14941	1668.4303	-1579.3533	1058.9213	1670.1691	-1518.5892	1025.0134	1708.0461	-1551.0638	1059.3173	1672.158	-1585.3544	-201.76408	1171.5973	-147.21324	-197.03485	1170.814	-231.24831	-199.12361	1208.5005	-184.97552	-166.73705	1171.2244	-182.60219	-247.63025	1172.537	-186.66846																																														-1068.5095	210.17062	-1625.0941	-1073.611	248.82758	-1624.3083	-1321.4442	231.69836	1025.1168	-1320.1189	270.45029	1029.304	848.16443	183.59677	1196.2118	851.81555	222.36446	1194.0354	1088.8342	202.61984	-1428.0845	1082.8024	240.93504	-1432.1539	-1171.8517	1687.0283	-1581.6812	-1170.517	1648.0521	-1581.3978	-1270.4493	1699.3865	1096.5046	-1270.4446	1660.3888	1096.0734	952.78156	1705.7269	1186.9584	972.69885	1733.9347	1168.8303	1026.5667	1669.2278	-1551.4808	1028.1256	1630.2614	-1551.8994	-199.65678	1171.248	-184.65828	-200.21489	1132.2535	-184.3262
340	2.825	-1038.1733	214.57867	-1644.0964	-1109.4164	204.1503	-1599.3434	-1063.61	172.9796	-1625.7908	-1054.1499	262.23505	-1634.8319	-1352.677	235.11586	1003.8476	-1281.3413	227.41338	1052.4242	-1322.7914	193.84723	1021.0031	-1284.4988	287.90906	1052.8488	814.01465	187.53262	1209.4668	892.20966	178.46976	1179.2616	844.47083	145.49561	1198.3477	861.20105	292.31305	1167.582	1115.8165	209.95476	-1401.7219	1056.3064	193.98947	-1460.0621	1095.187	162.49205	-1423.7692	1069.7618	238.90427	-1425.813	-1204.5991	1686.0656	-1563.0585	-1129.1262	1688.3191	-1605.9604	-1173.1185	1724.3882	-1581.9575	-1134.0405	1581.0197	-1603.7753	-1239.5928	1699.1411	1119.4863	-1309.2627	1698.7212	1071.9054	-1270.4208	1736.3219	1096.8882	-1244.9093	1593.7433	1106.5929	988.90717	1664.2371	1162.2415	957.54364	1700.3619	1183.8507	922.01489	1662.324	1214.9509	939.85284	1659.4283	1159.8903	999.13562	1668.4358	-1579.3383	1058.9244	1670.1704	-1518.5818	1025.0062	1708.0436	-1551.0636	1059.2914	1672.1949	-1585.4658	-201.77174	1171.6094	-147.21541	-197.02965	1170.818	-231.24446	-199.12785	1208.4822	-184.96852	-166.68993	1171.0974	-182.60088	-247.6575	1172.5502	-186.65706																																														-1068.5575	210.13109	-1625.0098	-1073.7047	248.7814	-1624.1975	-1321.4819	231.74757	1025.09	-1320.1432	270.49991	1029.2688	848.09497	183.58267	1196.3021	851.78406	222.35194	1194.2201	1088.775	202.7001	-1428.2317	1082.6698	240.98421	-1432.4808	-1171.8444	1687.0435	-1581.6777	-1170.5145	1648.0673	-1581.3857	-1270.9863	1698.9518	1098.0461	-1271.5762	1659.9751	1099.2539	952.85175	1705.7661	1187.0834	972.85486	1733.9458	1169.0065	1026.5526	1669.2312	-1551.4774	1028.1052	1630.2643	-1551.8929	-199.65927	1171.2568	-184.64786	-200.21597	1132.2622	-184.31197
341	2.8333333	-1038.2075	214.55467	-1644.0903	-1109.4147	204.15871	-1599.3381	-1063.5916	172.91914	-1625.84	-1054.1791	262.24377	-1634.838	-1352.6875	235.15878	1003.7083	-1281.3748	227.38687	1052.4617	-1322.7252	193.89758	1020.9952	-1284.4885	287.87149	1052.8894	814.11847	187.55125	1209.5793	892.20184	178.4288	1179.2961	844.53436	145.44582	1198.3649	861.14374	292.68146	1167.1124	1115.7687	209.6675	-1401.5737	1056.2926	194.01137	-1460.0746	1095.1953	162.49265	-1423.8224	1069.7745	238.88499	-1425.7939	-1204.5996	1686.0475	-1563.0378	-1129.1241	1688.2927	-1605.9357	-1173.1113	1724.3693	-1581.9554	-1134.0303	1581.0325	-1603.7987	-1239.5966	1699.147	1119.4814	-1309.2964	1698.8387	1071.9344	-1270.4133	1736.3103	1096.8931	-1245.666	1592.8481	1110.6674	988.98444	1664.3093	1162.2351	957.34387	1700.4902	1183.8269	922.12939	1662.3296	1214.9423	939.87024	1659.4139	1159.936	999.11768	1668.46	-1579.3889	1058.9244	1670.1638	-1518.5913	1025.0137	1708.0504	-1551.0568	1059.3076	1672.1516	-1585.3607	-201.76018	1171.5875	-147.21671	-197.03079	1170.8208	-231.25052	-199.20721	1208.5809	-184.97527	-166.67149	1171.1057	-182.601	-247.66122	1172.5665	-186.65999																																														-1068.5208	210.12904	-1625.0389	-1073.6412	248.78249	-1624.2072	-1321.4033	231.74931	1025.0958	-1320.0502	270.49911	1029.2937	848.20972	183.56837	1196.3577	851.94727	222.33517	1194.3165	1088.8263	202.57533	-1428.0743	1082.7395	240.88248	-1432.1378	-1171.833	1687.0221	-1581.6613	-1170.4991	1648.0461	-1581.3544	-1271.0297	1699.0078	1098.0387	-1271.674	1660.0316	1099.2357	952.72424	1705.7726	1186.9794	972.59637	1733.99	1168.8168	1026.5609	1669.2418	-1551.491	1028.1143	1630.2753	-1551.9271	-199.65289	1171.2458	-184.65973	-200.11839	1132.25	-184.3302
